<svg aria-hidden="true" style="position: absolute; width: 0; height: 0; overflow: hidden;" version="1.1" xmlns="http://www.w3.org/2000/svg" xmlns:xlink="http://www.w3.org/1999/xlink">
<defs>
<symbol id="icon-77158061540553610" viewBox="0 0 33 32">
<path d="M16.384 0c-9.048 0-16.384 7.335-16.384 16.384 0 7.239 4.695 13.38 11.204 15.547 0.819 0.152 1.119-0.355 1.119-0.788 0-0.391-0.015-1.681-0.022-3.050-4.558 0.991-5.52-1.933-5.52-1.933-0.745-1.894-1.819-2.397-1.819-2.397-1.487-1.017 0.112-0.996 0.112-0.996 1.645 0.116 2.512 1.688 2.512 1.688 1.461 2.505 3.833 1.781 4.768 1.362 0.147-1.059 0.572-1.782 1.040-2.191-3.639-0.414-7.465-1.819-7.465-8.097 0-1.789 0.64-3.25 1.688-4.398-0.17-0.413-0.731-2.079 0.159-4.336 0 0 1.376-0.44 4.507 1.679 1.307-0.363 2.709-0.545 4.101-0.551 1.392 0.006 2.795 0.188 4.104 0.551 3.127-2.12 4.501-1.679 4.501-1.679 0.892 2.257 0.331 3.923 0.161 4.336 1.051 1.147 1.686 2.609 1.686 4.398 0 6.293-3.833 7.678-7.481 8.084 0.588 0.508 1.111 1.506 1.111 3.034 0 2.192-0.019 3.957-0.019 4.496 0 0.436 0.295 0.947 1.125 0.786 6.506-2.169 11.195-8.308 11.195-15.545 0-9.049-7.336-16.384-16.384-16.384zM6.136 23.34c-0.036 0.081-0.164 0.106-0.281 0.050-0.119-0.053-0.186-0.164-0.147-0.246 0.035-0.084 0.164-0.107 0.282-0.051 0.119 0.053 0.187 0.166 0.146 0.247zM6.942 24.059c-0.078 0.072-0.231 0.039-0.335-0.076-0.107-0.114-0.127-0.267-0.048-0.34 0.081-0.072 0.229-0.039 0.336 0.076 0.107 0.116 0.128 0.267 0.046 0.34zM7.495 24.979c-0.1 0.070-0.265 0.004-0.366-0.141-0.1-0.146-0.1-0.32 0.002-0.39s0.263-0.007 0.366 0.138c0.1 0.148 0.1 0.323-0.002 0.394zM8.43 26.044c-0.090 0.099-0.281 0.072-0.421-0.063-0.143-0.132-0.183-0.32-0.093-0.419s0.283-0.071 0.424 0.063c0.142 0.132 0.186 0.321 0.090 0.419zM9.639 26.404c-0.040 0.128-0.224 0.187-0.409 0.132-0.185-0.056-0.307-0.206-0.269-0.336 0.039-0.129 0.224-0.19 0.411-0.132 0.185 0.056 0.307 0.205 0.268 0.336zM11.014 26.557c0.005 0.135-0.153 0.247-0.348 0.25-0.196 0.004-0.354-0.105-0.357-0.238 0-0.136 0.154-0.247 0.35-0.251 0.195-0.004 0.354 0.105 0.354 0.239zM12.365 26.505c0.023 0.132-0.112 0.267-0.306 0.303-0.19 0.035-0.366-0.047-0.39-0.177-0.024-0.135 0.114-0.27 0.304-0.305 0.194-0.034 0.367 0.046 0.392 0.18z"></path>
</symbol>
<symbol id="icon-9645877501606988091" viewBox="0 0 32 32">
<path d="M25 4h-18c-2.761 0-5 2.239-5 5v0 14c0 2.761 2.239 5 5 5v0h18c2.761 0 5-2.239 5-5v0-14c0-2.761-2.239-5-5-5v0zM7 6h18c0.981 0.005 1.85 0.48 2.394 1.212l0.006 0.008s0 0-0.080 0l-9.32 8.57c-0.532 0.49-1.246 0.791-2.030 0.791s-1.498-0.301-2.032-0.793l0.002 0.002-9.26-8.53h-0.080c0.542-0.755 1.412-1.245 2.398-1.26l0.002-0zM25 26h-18c-1.657 0-3-1.343-3-3v0-13.64l8.62 7.9c0.887 0.816 2.075 1.316 3.38 1.316s2.493-0.5 3.384-1.319l-0.004 0.003 8.62-7.9v13.64c0 1.657-1.343 3-3 3v0z"></path>
</symbol>
<symbol id="icon-linkedin" viewBox="0 0 32 32">
<path style="fill: var(--color1, #000)" d="M3.556 32h24.889c1.964 0 3.556-1.592 3.556-3.556v-24.889c0-1.964-1.592-3.556-3.556-3.556h-24.889c-1.964 0-3.556 1.592-3.556 3.556v24.889c0 1.964 1.592 3.556 3.556 3.556z"></path>
<path style="fill: var(--color2, #fff)" d="M27.556 27.556h-4.749v-8.088c0-2.218-0.843-3.457-2.598-3.457-1.909 0-2.907 1.29-2.907 3.457v8.088h-4.576v-15.407h4.576v2.075c0 0 1.376-2.546 4.646-2.546 3.268 0 5.608 1.996 5.608 6.123v9.755zM7.266 10.131c-1.559 0-2.822-1.273-2.822-2.843s1.263-2.843 2.822-2.843c1.559 0 2.821 1.273 2.821 2.843s-1.262 2.843-2.821 2.843zM4.903 27.556h4.772v-15.407h-4.772v15.407z"></path>
</symbol>
<symbol id="icon-telegram" viewBox="0 0 32 32">
<path stroke-linejoin="round" stroke-linecap="round" stroke-miterlimit="10" stroke-width="2" d="M26.4 2.9l-22.6 12.1c-0.7 0.4-0.7 1.5 0.1 1.8l20.8 8.7c0.6 0.3 1.3-0.2 1.4-0.8l1.7-20.8c0.1-0.9-0.7-1.4-1.4-1z"></path>
<path stroke-linejoin="round" stroke-linecap="round" stroke-miterlimit="10" stroke-width="2" d="M26 4l-13 16v7.3c0 0.9 1.2 1.4 1.8 0.7l4.2-5"></path>
</symbol>
<symbol id="icon-7442810861529659196" viewBox="0 0 32 32">
<path fill="none" stroke="#000" style="stroke: var(--color1, #000)" stroke-linejoin="round" stroke-linecap="round" stroke-miterlimit="4" stroke-width="1.3333" d="M24.667 26h-17.333"></path>
<path d="M16 27.667c-0.552 0-1 0.448-1 1s0.448 1 1 1c0.552 0 1-0.448 1-1v0c0-0 0-0.001 0-0.001 0-0.552-0.447-0.999-0.999-0.999-0 0-0.001 0-0.001 0h0z"></path>
<path fill="none" stroke="#000" style="stroke: var(--color1, #000)" stroke-linejoin="round" stroke-linecap="round" stroke-miterlimit="4" stroke-width="1.3333" d="M10 0.667h12c1.473 0 2.667 1.194 2.667 2.667v25.333c0 1.473-1.194 2.667-2.667 2.667h-12c-1.473 0-2.667-1.194-2.667-2.667v-25.333c0-1.473 1.194-2.667 2.667-2.667z"></path>
</symbol>
<symbol id="icon-techskill" viewBox="0 0 32 32">
<path d="M17.339 16.242l1.686-1.225h-2.084c-0.135 0-0.255-0.087-0.297-0.216l-0.644-1.982-0.644 1.982c-0.042 0.129-0.162 0.216-0.297 0.216h-2.084l1.686 1.225c0.11 0.080 0.155 0.221 0.114 0.349l-0.644 1.982 1.686-1.225c0.055-0.040 0.119-0.060 0.184-0.060s0.129 0.020 0.184 0.060l1.686 1.225-0.644-1.982c-0.042-0.129 0.004-0.27 0.114-0.349z"></path>
<path d="M25.43 18.225c0.031-0.131 0.142-0.227 0.276-0.24l4.356-0.396v-3.179l-4.356-0.396c-0.134-0.012-0.245-0.109-0.276-0.24-0.238-1.014-0.639-1.979-1.189-2.868-0.071-0.114-0.061-0.261 0.026-0.365l2.801-3.361-2.248-2.248-3.361 2.801c-0.103 0.086-0.25 0.096-0.365 0.026-0.889-0.551-1.854-0.951-2.868-1.189-0.131-0.031-0.227-0.142-0.24-0.276l-0.396-4.356h-3.179l-0.396 4.356c-0.012 0.134-0.109 0.245-0.24 0.276-1.014 0.238-1.979 0.639-2.868 1.189-0.114 0.071-0.261 0.061-0.365-0.026l-3.361-2.801-2.248 2.248 2.801 3.361c0.086 0.103 0.096 0.25 0.026 0.365-0.551 0.889-0.951 1.854-1.189 2.868-0.031 0.131-0.142 0.228-0.276 0.24l-4.356 0.396v3.179l4.356 0.396c0.134 0.012 0.245 0.109 0.276 0.24 0.238 1.014 0.639 1.979 1.189 2.868 0.071 0.114 0.061 0.261-0.026 0.365l-2.801 3.361 2.248 2.248 3.361-2.801c0.103-0.086 0.25-0.096 0.365-0.026 0.889 0.551 1.854 0.951 2.868 1.189 0.131 0.031 0.228 0.142 0.24 0.276l0.396 4.356h3.179l0.396-4.356c0.012-0.134 0.109-0.245 0.24-0.276 1.014-0.238 1.98-0.639 2.868-1.189 0.114-0.071 0.261-0.061 0.365 0.026l3.361 2.801 2.248-2.248-2.801-3.361c-0.086-0.103-0.096-0.25-0.026-0.365 0.551-0.889 0.951-1.854 1.189-2.869zM16 23.188c-3.963 0-7.188-3.224-7.188-7.188s3.224-7.188 7.188-7.188 7.188 3.224 7.188 7.188-3.224 7.188-7.188 7.188z"></path>
</symbol>
<symbol id="icon-square" viewBox="0 0 32 32">
<path d="M27.733 29.867h-23.467c-1.178 0-2.133-0.955-2.133-2.133v-23.467c0-1.178 0.955-2.133 2.133-2.133h23.467c1.178 0 2.133 0.955 2.133 2.133v23.467c0 1.178-0.955 2.133-2.133 2.133z"></path>
</symbol>
</defs>
</svg>
